# xmcd
#
# Track frame offsets:
#	150
#	20429
#	45904
#	61445
#	81680
#	86653
#	106720
#	125638
#	143257
#	160176
#	179249
#	197079
#	217175
#	239418
#	253371
#	273223
#	292600
#	310298
#	328757
#	344339
#
# Disc length: 4797 seconds
#
# Revision: 1
# Processed by: cddbd v1.5.2PL0 Copyright (c) Steve Scherf et al.
# Submitted via: audiograbber 1.83.01
#
DISCID=2c12bb14
DTITLE=Glashaus - Von Herzen - Das Beste
DYEAR=2006
DGENRE=Hip-Hop
TTITLE0=Solange
TTITLE1=Wenn Das Liebe Ist
TTITLE2=Was Immer Es Ist
TTITLE3=Trost
TTITLE4=Bis Dann
TTITLE5=Auferstehung
TTITLE6=Ohne Dich
TTITLE7=Der Herr Ist Gross
TTITLE8=Bald
TTITLE9=Land In Sicht
TTITLE10=Die Alte Geschichte
TTITLE11=Ich Bring' Dich Durch Die Nacht
TTITLE12=Haltet Die Welt An
TTITLE13=Du
TTITLE14=Is' Nur Kino
TTITLE15=In Mir
TTITLE16=In Meinem Leben
TTITLE17=Zu Dir Durch
TTITLE18=Leid Tun
TTITLE19=Jetzt Fängt Das Wieder An
EXTD=
EXTT0=
EXTT1=
EXTT2=
EXTT3=
EXTT4=
EXTT5=
EXTT6=
EXTT7=
EXTT8=
EXTT9=
EXTT10=
EXTT11=
EXTT12=
EXTT13=
EXTT14=
EXTT15=
EXTT16=
EXTT17=
EXTT18=
EXTT19=
PLAYORDER=
